<svg width="16" height="16" viewBox="0 0 16 16" fill="none" xmlns="http://www.w3.org/2000/svg">
<g clip-path="url(#clip0_26_82)">
<path d="M7.99992 1.328C6.79305 1.32822 5.60889 1.65605 4.57373 2.27651C3.53858 2.89697 2.69127 3.78679 2.12218 4.85106C1.5531 5.91532 1.28358 7.11411 1.34239 8.31953C1.4012 9.52496 1.78613 10.6918 2.45611 11.6956C3.12609 12.6994 4.056 13.5026 5.14664 14.0193C6.23727 14.5361 7.44773 14.7471 8.64888 14.6298C9.85003 14.5125 10.9968 14.0714 11.9669 13.3535C12.937 12.6356 13.6941 11.6678 14.1572 10.5533C14.3846 10.0067 13.8399 9.45734 13.2919 9.68C12.3527 10.0605 11.3099 10.0997 10.3447 9.79096C9.37953 9.4822 8.55309 8.84495 8.00908 7.99002C7.46506 7.13508 7.23787 6.11652 7.36701 5.11144C7.49615 4.10635 7.97345 3.17831 8.71592 2.48867L8.76725 2.43534C9.13458 2.01534 8.84258 1.33334 8.26192 1.33334H8.08458L8.03925 1.32934L7.99925 1.328H7.99992Z" fill="white"/>
</g>
<defs>
<clipPath id="clip0_26_82">
<rect width="16" height="16" fill="white"/>
</clipPath>
</defs>
</svg>
