<svg width="24" height="24" viewBox="0 0 24 24" fill="none" xmlns="http://www.w3.org/2000/svg">
<g clip-path="url(#clip0_26_85)">
<path d="M12 19C12.2449 19 12.4813 19.09 12.6644 19.2527C12.8474 19.4155 12.9643 19.6397 12.993 19.883L13 20V21C12.9997 21.2549 12.9021 21.5 12.7272 21.6854C12.5522 21.8707 12.313 21.9822 12.0586 21.9972C11.8042 22.0121 11.5536 21.9293 11.3582 21.7657C11.1627 21.6021 11.0371 21.3701 11.007 21.117L11 21V20C11 19.7348 11.1054 19.4804 11.2929 19.2929C11.4804 19.1054 11.7348 19 12 19Z" fill="white" fill-opacity="0.4"/>
<path d="M18.313 16.91L18.407 16.993L19.107 17.693C19.2863 17.873 19.3904 18.1144 19.3982 18.3684C19.406 18.6223 19.3168 18.8697 19.1487 19.0603C18.9807 19.2508 18.7464 19.3703 18.4935 19.3944C18.2406 19.4185 17.988 19.3454 17.787 19.19L17.693 19.107L16.993 18.407C16.8204 18.2347 16.7167 18.0054 16.7014 17.762C16.6861 17.5187 16.7603 17.2781 16.9099 17.0856C17.0596 16.8931 17.2744 16.7619 17.514 16.7166C17.7536 16.6714 18.0015 16.7153 18.211 16.84L18.313 16.91Z" fill="white" fill-opacity="0.4"/>
<path d="M7.00698 16.993C7.17916 17.1652 7.28259 17.3943 7.29787 17.6373C7.31315 17.8803 7.23923 18.1206 7.08998 18.313L7.00698 18.407L6.30698 19.107C6.12702 19.2863 5.88555 19.3905 5.6316 19.3982C5.37765 19.406 5.13027 19.3168 4.9397 19.1487C4.74914 18.9807 4.62968 18.7464 4.60558 18.4935C4.58149 18.2406 4.65457 17.988 4.80998 17.787L4.89298 17.693L5.59298 16.993C5.78051 16.8055 6.03482 16.7002 6.29998 16.7002C6.56515 16.7002 6.81945 16.8055 7.00698 16.993Z" fill="white" fill-opacity="0.4"/>
<path d="M4.00011 11C4.25499 11.0003 4.50015 11.0979 4.68548 11.2728C4.87082 11.4478 4.98235 11.687 4.99728 11.9414C5.01222 12.1958 4.92944 12.4464 4.76585 12.6418C4.60226 12.8373 4.37021 12.9629 4.11711 12.993L4.00011 13H3.00011C2.74523 12.9997 2.50008 12.9021 2.31474 12.7272C2.12941 12.5522 2.01788 12.313 2.00294 12.0586C1.988 11.8042 2.07079 11.5536 2.23438 11.3582C2.39797 11.1627 2.63002 11.0371 2.88311 11.007L3.00011 11H4.00011Z" fill="white" fill-opacity="0.4"/>
<path d="M21.0001 11C21.255 11.0003 21.5001 11.0979 21.6855 11.2728C21.8708 11.4478 21.9823 11.687 21.9973 11.9414C22.0122 12.1958 21.9294 12.4464 21.7658 12.6418C21.6023 12.8373 21.3702 12.9629 21.1171 12.993L21.0001 13H20.0001C19.7452 12.9997 19.5001 12.9021 19.3147 12.7272C19.1294 12.5522 19.0179 12.313 19.0029 12.0586C18.988 11.8042 19.0708 11.5536 19.2344 11.3582C19.398 11.1627 19.63 11.0371 19.8831 11.007L20.0001 11H21.0001Z" fill="white" fill-opacity="0.4"/>
<path d="M6.21288 4.81L6.30688 4.893L7.00688 5.593C7.18623 5.77295 7.29036 6.01443 7.29811 6.26838C7.30587 6.52233 7.21667 6.76971 7.04863 6.96028C6.8806 7.15084 6.64633 7.2703 6.39341 7.2944C6.14049 7.31849 5.88787 7.24541 5.68688 7.09L5.59288 7.007L4.89288 6.307C4.72097 6.13468 4.61781 5.90557 4.60275 5.66263C4.58768 5.41969 4.66174 5.17959 4.81104 4.98735C4.96035 4.79511 5.17464 4.66393 5.41375 4.61839C5.65286 4.57285 5.90037 4.61609 6.10988 4.74L6.21288 4.81Z" fill="white" fill-opacity="0.4"/>
<path d="M19.1071 4.893C19.2793 5.06519 19.3827 5.29429 19.398 5.53732C19.4132 5.78034 19.3393 6.02059 19.1901 6.213L19.1071 6.307L18.4071 7.007C18.2271 7.18635 17.9856 7.29047 17.7317 7.29823C17.4777 7.30598 17.2304 7.21678 17.0398 7.04875C16.8492 6.88072 16.7298 6.64645 16.7057 6.39352C16.6816 6.1406 16.7547 5.88799 16.9101 5.687L16.9931 5.593L17.6931 4.893C17.8806 4.70553 18.1349 4.60021 18.4001 4.60021C18.6652 4.60021 18.9196 4.70553 19.1071 4.893Z" fill="white" fill-opacity="0.4"/>
<path d="M12 2C12.2449 2.00003 12.4813 2.08996 12.6644 2.25272C12.8474 2.41547 12.9643 2.63975 12.993 2.883L13 3V4C12.9997 4.25488 12.9021 4.50003 12.7272 4.68537C12.5522 4.8707 12.313 4.98223 12.0586 4.99717C11.8042 5.01211 11.5536 4.92933 11.3582 4.76574C11.1627 4.60214 11.0371 4.3701 11.007 4.117L11 4V3C11 2.73478 11.1054 2.48043 11.2929 2.29289C11.4804 2.10536 11.7348 2 12 2Z" fill="white" fill-opacity="0.4"/>
<path d="M12 7C12.9797 6.99994 13.9378 7.28769 14.7553 7.8275C15.5729 8.36731 16.2138 9.1354 16.5986 10.0364C16.9833 10.9373 17.0949 11.9315 16.9195 12.8953C16.7441 13.8592 16.2893 14.7502 15.6118 15.4579C14.9343 16.1655 14.0638 16.6585 13.1085 16.8756C12.1532 17.0928 11.1552 17.0245 10.2383 16.6793C9.3215 16.334 8.52629 15.7271 7.95146 14.9338C7.37663 14.1405 7.04752 13.1958 7.005 12.217L7 12L7.005 11.783C7.06092 10.4958 7.61161 9.27978 8.54222 8.38866C9.47284 7.49754 10.7115 7.00007 12 7Z" fill="white" fill-opacity="0.4"/>
</g>
<defs>
<clipPath id="clip0_26_85">
<rect width="24" height="24" fill="white"/>
</clipPath>
</defs>
</svg>
