<svg width="18" height="23" viewBox="0 0 18 23" fill="none" xmlns="http://www.w3.org/2000/svg">
<path fill-rule="evenodd" clip-rule="evenodd" d="M8.97746 2.28665C6.0108 2.28665 3.60587 4.6916 3.60587 7.65825V9.76437C3.60587 10.4818 3.37435 11.1214 3.09864 11.6738C2.90546 12.0608 2.66353 12.4529 2.44734 12.8033C2.36607 12.935 2.28843 13.0608 2.2184 13.1783C1.988 13.5646 1.85544 14.016 1.85544 14.5005C1.85544 15.7548 2.74748 16.8045 3.9549 16.9718C5.53569 17.1911 7.47578 17.4061 8.97746 17.4061C10.4791 17.4061 12.4193 17.1911 14 16.9718C15.2074 16.8045 16.0995 15.7548 16.0995 14.5005C16.0995 14.016 15.9669 13.5646 15.7365 13.1783C15.6665 13.0608 15.5888 12.935 15.5076 12.8033C15.2914 12.4529 15.0494 12.0608 14.8563 11.6738C14.5806 11.1214 14.3491 10.4819 14.3491 9.76437V7.65825C14.3491 4.6916 11.9441 2.28665 8.97746 2.28665ZM2.09613 7.65825C2.09613 3.85779 5.17701 0.776917 8.97746 0.776917C12.7779 0.776917 15.8588 3.85779 15.8588 7.65825V9.76437C15.8588 10.1544 15.9841 10.5529 16.2071 10.9994C16.3682 11.3223 16.5531 11.6217 16.7547 11.9484C16.8444 12.0937 16.9374 12.2445 17.0332 12.405C17.3992 13.0187 17.6092 13.7362 17.6092 14.5005C17.6092 16.4729 16.196 18.1916 14.2074 18.4673C12.6143 18.6882 10.5886 18.9159 8.97746 18.9159C7.36637 18.9159 5.34059 18.6882 3.74754 18.4673C1.75893 18.1916 0.345703 16.4729 0.345703 14.5005C0.345703 13.7362 0.555758 13.0187 0.921727 12.405C1.01747 12.2445 1.1105 12.0937 1.20022 11.9484C1.40184 11.6217 1.58671 11.3223 1.74785 10.9994C1.9708 10.5529 2.09613 10.1544 2.09613 9.76437V7.65825Z" fill="white"/>
<path fill-rule="evenodd" clip-rule="evenodd" d="M11.5834 19.8595C11.2361 19.6287 10.7676 19.723 10.5368 20.0701C10.2004 20.5761 9.62737 20.9069 8.97738 20.9069C8.32739 20.9069 7.7544 20.5761 7.41793 20.0701C7.18714 19.723 6.71859 19.6287 6.37142 19.8595C6.02425 20.0904 5.92994 20.5589 6.16077 20.906C6.76513 21.815 7.8008 22.4167 8.97738 22.4167C10.154 22.4167 11.1896 21.815 11.794 20.906C12.0248 20.5589 11.9305 20.0904 11.5834 19.8595Z" fill="white"/>
</svg>
